<svg xmlns="http://www.w3.org/2000/svg" width="20.35" height="20.35" viewBox="0 0 20.35 20.35">
    <defs>
        <style>
            .cls-1{fill:#757575}
        </style>
    </defs>
    <path d="M8.653 3A5.653 5.653 0 0 0 3 8.653V17.7a5.653 5.653 0 0 0 5.653 5.653H17.7a5.653 5.653 0 0 0 5.649-5.653V8.653A5.653 5.653 0 0 0 17.7 3zm11.305 2.261a1.131 1.131 0 1 1-1.131 1.131 1.131 1.131 0 0 1 1.131-1.131zm-6.783 2.261a5.653 5.653 0 1 1-5.653 5.653 5.653 5.653 0 0 1 5.653-5.653zm0 2.261a3.392 3.392 0 1 0 3.392 3.392 3.391 3.391 0 0 0-3.392-3.392z" class="cls-1" data-name="Path 1247" transform="translate(-3 -3)"/>
</svg>
