<svg xmlns="http://www.w3.org/2000/svg" width="12.379" height="12.997" viewBox="0 0 12.379 12.997">
    <defs>
        <style>
            .radio-svg{fill:#fff}
        </style>
    </defs>
    <path d="M2.767 4.187A1.227 1.227 0 0 0 2 5.332v7.427A1.237 1.237 0 0 0 3.238 14h9.9a1.237 1.237 0 0 0 1.238-1.238v-7.43a1.234 1.234 0 0 0-1.236-1.238H5.9l5.112-2.067L10.59 1zm2.327 8.572A1.857 1.857 0 1 1 6.951 10.9a1.854 1.854 0 0 1-1.857 1.859zm8.046-4.951H11.9V6.57h-1.235v1.238H3.238V5.332h9.9z" class="radio-svg" data-name="Path 1271" transform="translate(-2 -1)"/>
</svg>
