<svg xmlns="http://www.w3.org/2000/svg" width="134.018" height="71.767" viewBox="0 0 134.018 71.767">
    <defs>
        <style>
            .logo-1{fill:#dd137a}.logo-1,.logo-3{fill-rule:evenodd}.logo-2{fill:#84c325}.logo-3{fill:#0293de}.logo-4{fill:#f57f17}.logo-5{fill:#131210}
        </style>
    </defs>
    <g>
        <g>
            <path d="M393.311 240.359l8.667-71.767h9.711l-8.661 71.767z" class="logo-1" transform="translate(-382.801 -168.592)"/>
            <path d="M0 0h54.554v9.718H0z" class="logo-2" transform="translate(3.732 22.052)"/>
            <path d="M812.914 240.359l8.661-71.767h9.717l-8.667 71.767z" class="logo-3" transform="translate(-781.621 -168.592)"/>
            <path d="M0 0h54.554v9.712H0z" class="logo-4" transform="translate(0 40.185)"/>
            <path d="M393.311 972.016l4.061-33.636h9.717l-4.061 33.636z" class="logo-1" transform="translate(-382.801 -900.25)"/>
        </g>
        <g transform="translate(71.423 6.533)">
            <path d="M1667.673 319.077h-3.682v-14.249l-2.464 1.8v-3.915l2.825-2.1h3.321zm13.865-5.371a5.285 5.285 0 0 1-1.707 4.049 5.737 5.737 0 0 1-7.678 0 5.269 5.269 0 0 1-1.713-4.049v-7.725a5.268 5.268 0 0 1 1.713-4.049 5.806 5.806 0 0 1 7.678 0 5.285 5.285 0 0 1 1.707 4.049zm-3.653-.128v-7.445c0-1.485-.635-2.225-1.893-2.225s-1.87.74-1.87 2.225v7.445q0 2.2 1.87 2.2c1.258 0 1.893-.734 1.893-2.2zm10.427 5.5h-3.682v-14.25l-2.464 1.8v-3.915l2.825-2.1h3.32zm7.206 0h-3.688v-3.245h3.688zm10.969-5.68a5.564 5.564 0 0 1-1.713 4.188 5.8 5.8 0 0 1-4.171 1.643 5.434 5.434 0 0 1-3.629-1.346 5.861 5.861 0 0 1-2-3.839h3.524a2.155 2.155 0 0 0 2.179 1.736 2.057 2.057 0 0 0 1.45-.571 2.3 2.3 0 0 0 .7-1.736 2.356 2.356 0 0 0-.687-1.788 2.5 2.5 0 0 0-1.777-.647h-1.194v-2.907h1.061a2.489 2.489 0 0 0 1.753-.583 2.025 2.025 0 0 0 .635-1.567 2.011 2.011 0 0 0-2.05-2.074 1.878 1.878 0 0 0-1.917 1.736h-3.5a5.585 5.585 0 0 1 1.765-3.647 5.16 5.16 0 0 1 3.682-1.515 5.536 5.536 0 0 1 4.148 1.713 5.249 5.249 0 0 1 1.532 3.734 3.931 3.931 0 0 1-1.893 3.629 4.265 4.265 0 0 1 2.1 3.839z" class="logo-5" transform="translate(-1659.622 -300.482)"/>
            <path d="M2638.249 302.95v1.509h-.769a.336.336 0 0 0-.385.379v.78h1.153v1.3h-1.148v4.468h-1.666v-4.468h-.583v-1.3h.583v-.9a1.658 1.658 0 0 1 .53-1.311 1.826 1.826 0 0 1 1.281-.454zm9.076 8.441h-1.672v-3.583a.9.9 0 0 0-.25-.664.9.9 0 0 0-1.235 0 .914.914 0 0 0-.244.664v3.583h-1.684v-3.583a.915.915 0 0 0-.245-.664.852.852 0 0 0-.617-.245.841.841 0 0 0-.624.245.916.916 0 0 0-.244.664v3.583h-1.683v-6.011h1.683v.687c0-.006.006-.006.012 0a1.492 1.492 0 0 1 1.351-.757 1.738 1.738 0 0 1 .95.251 2.958 2.958 0 0 1 .547.53 2.314 2.314 0 0 1 1.789-.781 2.114 2.114 0 0 1 1.526.618 2.143 2.143 0 0 1 .641 1.619z" class="logo-5" transform="translate(-2584.731 -302.828)"/>
            <path d="M1671.884 797.148a11.829 11.829 0 0 1-.361 3.338 5.3 5.3 0 0 1-1.247 2.121 6.055 6.055 0 0 1-10.241-2.08 11.654 11.654 0 0 1-.39-3.379 10.375 10.375 0 0 1 .39-3.239 5.755 5.755 0 0 1 1.217-1.992 5.028 5.028 0 0 1 2.878-1.526l-3.431-3.408v-2.377h10.218v3.379h-4.433l3.6 3.571a5.61 5.61 0 0 1 1.4 2.214 11.237 11.237 0 0 1 .4 3.378zm-3.932.029a10.926 10.926 0 0 0-.081-1.666 2.715 2.715 0 0 0-.769-1.55l-.7-.687a2.671 2.671 0 0 0-2.272 1.13 5.066 5.066 0 0 0-.553 2.744 5.384 5.384 0 0 0 .542 2.9 1.882 1.882 0 0 0 1.649.763 1.908 1.908 0 0 0 1.661-.734 5.457 5.457 0 0 0 .524-2.9zm12.834-12.741l-3.956 4.043h-2.994l2.19-4.043zm-1.13 19.883h-2.161a3.7 3.7 0 0 1-2.633-1.048 3.417 3.417 0 0 1-1.107-2.575V790.28h3.932v9.775c0 .5.233.752.693.752h1.276zm12.915-2.6a7.485 7.485 0 0 1-6.256 2.744 8.329 8.329 0 0 1-4.241-.944 3.578 3.578 0 0 1-1.911-3.292 3.377 3.377 0 0 1 .612-1.911 3.211 3.211 0 0 1 1.911-1.358 2.428 2.428 0 0 1-1.94-2.633 3.688 3.688 0 0 1 1.678-3.1 6.669 6.669 0 0 1 4.334-1.107 9.383 9.383 0 0 1 5.674 2.022l-2.213 2.406a7.591 7.591 0 0 0-3.519-1.189q-2.542 0-2.353 1.521c.076.629.583.943 1.526.943h2.382v2.579h-2.6a2.156 2.156 0 0 0-1.264.361 1.128 1.128 0 0 0-.513.967c0 1.014.914 1.526 2.744 1.526a4.8 4.8 0 0 0 3.35-1.666zm14.331-8.2h-2.989a4.952 4.952 0 0 1 1.521 3.851 10.865 10.865 0 0 1-.384 3.268 5.209 5.209 0 0 1-1.218 1.992 5.907 5.907 0 0 1-4.515 1.858 5.847 5.847 0 0 1-4.514-1.858 5.138 5.138 0 0 1-1.218-1.992 10.645 10.645 0 0 1-.391-3.268 10.519 10.519 0 0 1 .391-3.239 5.364 5.364 0 0 1 1.218-2.021 4.869 4.869 0 0 1 3.1-1.66 39.579 39.579 0 0 1 5.1-.169h3.9zm-5.4 3.822a5.289 5.289 0 0 0-.536-2.866 2.156 2.156 0 0 0-3.589.541 6.8 6.8 0 0 0-.25 2.3 5.333 5.333 0 0 0 .542 2.866 2.208 2.208 0 0 0 3.309.023 5.373 5.373 0 0 0 .524-2.866zm18.706 6.979h-3.932v-8.36a2.122 2.122 0 0 0-.576-1.556 2.092 2.092 0 0 0-2.884 0 2.125 2.125 0 0 0-.583 1.556v8.359h-3.933V790.28h3.932v1.608a.092.092 0 0 1 .058-.029 3.935 3.935 0 0 1 3.431-1.742 4.3 4.3 0 0 1 3.2 1.311 4.435 4.435 0 0 1 1.287 3.228z" class="logo-5" transform="translate(-1657.833 -760.465)"/>
            <path d="M1625.16 1322.674v-6.612h-2.091v-1.031h5.342v1.031h-2.091v6.612zm5.1-6.548l-1.1.792v-1.887h1.1zm4.7 6.548v-.571a1.827 1.827 0 0 1-1.4.635 1.675 1.675 0 0 1-1.608-.944 4.6 4.6 0 0 1-.239-1.847 9.82 9.82 0 0 1 .035-1.072 1.878 1.878 0 0 1 .349-1 1.752 1.752 0 0 1 1.462-.7 2.043 2.043 0 0 1 1.4.641v-.577h1.095v5.441zm-1.072-4.41a.907.907 0 0 0-.921.524 2.943 2.943 0 0 0-.163 1.159 3.01 3.01 0 0 0 .163 1.171 1.059 1.059 0 0 0 1.841-.023 3.069 3.069 0 0 0 .152-1.147 3 3 0 0 0-.152-1.136.913.913 0 0 0-.92-.547zm7.649 2.3a2.159 2.159 0 0 1-.612 1.549 2.007 2.007 0 0 1-1.509.641 2.041 2.041 0 0 1-1.52-.641 2.139 2.139 0 0 1-.618-1.549v-3.326h1.1v3.315a1.117 1.117 0 0 0 .291.781.945.945 0 0 0 .74.326.975.975 0 0 0 .746-.326 1.1 1.1 0 0 0 .3-.781v-3.315h1.089zm4.34-2.359h-1.212v3.111a.3.3 0 0 0 .332.344h.483v1.02h-.676a1.191 1.191 0 0 1-.874-.361 1.161 1.161 0 0 1-.361-.862v-3.25h-1.247v-.967h3.553zm2.744 4.474h-.676a1.234 1.234 0 0 1-1.235-1.224v-4.217h1.1v4.066a.3.3 0 0 0 .332.344h.483zm-1.911-6.14l.985-1.567h1.433l-1.521 1.567zm5.925 3.455a2.231 2.231 0 0 0-.274-1.276.994.994 0 0 0-.874-.385 1.016 1.016 0 0 0-.92.461 2.256 2.256 0 0 0-.227 1.188 2.312 2.312 0 0 0 .274 1.282.993.993 0 0 0 .874.384 1.046 1.046 0 0 0 .926-.46 2.377 2.377 0 0 0 .221-1.194zm1.7-2.767v.967h-1.189a2.147 2.147 0 0 1 .448.716 3.332 3.332 0 0 1 .14 1.072 4.6 4.6 0 0 1-.14 1.3 1.917 1.917 0 0 1-.448.763 2.307 2.307 0 0 1-3.309 0 1.99 1.99 0 0 1-.448-.763 4.606 4.606 0 0 1-.14-1.3 4.51 4.51 0 0 1 .14-1.287 2.038 2.038 0 0 1 .448-.763 2.146 2.146 0 0 1 1.655-.693c.157 0 1.107-.006 2.843-.012zm.635 2.726a4.752 4.752 0 0 1 .14-1.311 2.271 2.271 0 0 1 3.757-.774 2.237 2.237 0 0 1 .448.774 6.24 6.24 0 0 1 0 2.628 1.926 1.926 0 0 1-.448.775 2.307 2.307 0 0 1-3.309 0 1.924 1.924 0 0 1-.448-.775 4.738 4.738 0 0 1-.14-1.317zm3.39.012a2.362 2.362 0 0 0-.274-1.311.994.994 0 0 0-.874-.384 1.013 1.013 0 0 0-.921.472 2.29 2.29 0 0 0-.227 1.212 2.38 2.38 0 0 0 .274 1.311.992.992 0 0 0 .874.384 1.014 1.014 0 0 0 .92-.472 2.307 2.307 0 0 0 .227-1.212zm6.5.6a2.16 2.16 0 0 1-.612 1.549 2.007 2.007 0 0 1-1.509.641 2.032 2.032 0 0 1-1.52-.641 2.14 2.14 0 0 1-.617-1.549v-3.326h1.095v3.315a1.119 1.119 0 0 0 .291.781.946.946 0 0 0 .74.326.975.975 0 0 0 .746-.326 1.1 1.1 0 0 0 .3-.781v-3.315h1.089zm8.062 1.223a2.52 2.52 0 0 1-2.167.944 3.022 3.022 0 0 1-1.538-.344 1.345 1.345 0 0 1-.693-1.247 1.347 1.347 0 0 1 1.135-1.317 1.031 1.031 0 0 1-.611-.28 1.045 1.045 0 0 1-.3-.8 1.389 1.389 0 0 1 .606-1.165 2.379 2.379 0 0 1 1.573-.408 3.151 3.151 0 0 1 1.987.751l-.676.781a2.338 2.338 0 0 0-1.328-.5c-.763 0-1.113.245-1.054.746.035.32.28.478.728.478h.775v.9h-.856a1 1 0 0 0-.606.174.541.541 0 0 0-.234.472c0 .483.4.728 1.212.728a1.637 1.637 0 0 0 1.258-.612zm3.3-3.659a1.453 1.453 0 0 0-1.264.554 1.246 1.246 0 0 0-.215.466 4.238 4.238 0 0 0-.052.8 2.335 2.335 0 0 0 .274 1.311.994.994 0 0 0 .874.384 1.013 1.013 0 0 0 .92-.472 2.3 2.3 0 0 0 .227-1.212 4.143 4.143 0 0 0-.041-.728 1.4 1.4 0 0 0-.379-.751zm-.833-.868l-1.334-1.41v-.815h3.67v.964h-2.016l1.707 1.783a2.241 2.241 0 0 1 .519.845 4.5 4.5 0 0 1 .145 1.323 4.755 4.755 0 0 1-.14 1.317 2 2 0 0 1-.448.775 2.307 2.307 0 0 1-3.309 0 1.946 1.946 0 0 1-.448-.769 4.806 4.806 0 0 1-.14-1.322 4.474 4.474 0 0 1 .14-1.276 1.981 1.981 0 0 1 .448-.751 2.207 2.207 0 0 1 1.206-.664zm9.955 3.519a1.983 1.983 0 0 1-.53 1.4 1.735 1.735 0 0 1-1.328.577 1.929 1.929 0 0 1-1.328-.624 1.866 1.866 0 0 1-1.323.624 1.757 1.757 0 0 1-1.334-.577 1.969 1.969 0 0 1-.542-1.4v-1.427a2.187 2.187 0 0 1 2-2.167v1.089a1.147 1.147 0 0 0-.646.39 1.027 1.027 0 0 0-.257.688v1.427a.927.927 0 0 0 .216.629.69.69 0 0 0 .565.262.73.73 0 0 0 .583-.256.964.964 0 0 0 .216-.635v-1.742h1.06v1.742a.934.934 0 0 0 .215.635.719.719 0 0 0 .577.256.657.657 0 0 0 .553-.256.986.986 0 0 0 .2-.635v-1.427a1.1 1.1 0 0 0-.239-.7 1.046 1.046 0 0 0-.629-.379v-1.089a2.047 2.047 0 0 1 1.41.7 2.119 2.119 0 0 1 .565 1.468zm-3.786-4.241l.984-1.567h1.439l-1.521 1.567z" class="logo-5" transform="translate(-1623.069 -1264.714)"/>
        </g>
    </g>
</svg>
