<svg width="22" height="22" viewBox="0 0 22 22" fill="none" xmlns="http://www.w3.org/2000/svg">
<path fill-rule="evenodd" clip-rule="evenodd" d="M5.4 0H0.6C0.27 0 0 0.27 0 0.6V5.4C0 5.73 0.27 6 0.6 6H5.4C5.73 6 6 5.73 6 5.4V0.6C6 0.27 5.73 0 5.4 0Z" fill="black"/>
<path fill-rule="evenodd" clip-rule="evenodd" d="M21.4 0H16.6C16.27 0 16 0.27 16 0.6V5.4C16 5.73 16.27 6 16.6 6H21.4C21.73 6 22 5.73 22 5.4V0.6C22 0.27 21.73 0 21.4 0Z" fill="black"/>
<path fill-rule="evenodd" clip-rule="evenodd" d="M13.4 0H8.6C8.27 0 8 0.27 8 0.6V5.4C8 5.73 8.27 6 8.6 6H13.4C13.73 6 14 5.73 14 5.4V0.6C14 0.27 13.73 0 13.4 0Z" fill="black"/>
<path fill-rule="evenodd" clip-rule="evenodd" d="M5.4 16H0.6C0.27 16 0 16.27 0 16.6V21.4C0 21.73 0.27 22 0.6 22H5.4C5.73 22 6 21.73 6 21.4V16.6C6 16.27 5.73 16 5.4 16Z" fill="black"/>
<path fill-rule="evenodd" clip-rule="evenodd" d="M21.4 16H16.6C16.27 16 16 16.27 16 16.6V21.4C16 21.73 16.27 22 16.6 22H21.4C21.73 22 22 21.73 22 21.4V16.6C22 16.27 21.73 16 21.4 16Z" fill="black"/>
<path fill-rule="evenodd" clip-rule="evenodd" d="M13.4 16H8.6C8.27 16 8 16.27 8 16.6V21.4C8 21.73 8.27 22 8.6 22H13.4C13.73 22 14 21.73 14 21.4V16.6C14 16.27 13.73 16 13.4 16Z" fill="black"/>
<path fill-rule="evenodd" clip-rule="evenodd" d="M5.4 8H0.6C0.27 8 0 8.27 0 8.6V13.4C0 13.73 0.27 14 0.6 14H5.4C5.73 14 6 13.73 6 13.4V8.6C6 8.27 5.73 8 5.4 8Z" fill="black"/>
<path fill-rule="evenodd" clip-rule="evenodd" d="M21.4 8H16.6C16.27 8 16 8.27 16 8.6V13.4C16 13.73 16.27 14 16.6 14H21.4C21.73 14 22 13.73 22 13.4V8.6C22 8.27 21.73 8 21.4 8Z" fill="black"/>
<path fill-rule="evenodd" clip-rule="evenodd" d="M13.4 8H8.6C8.27 8 8 8.27 8 8.6V13.4C8 13.73 8.27 14 8.6 14H13.4C13.73 14 14 13.73 14 13.4V8.6C14 8.27 13.73 8 13.4 8Z" fill="black"/>
</svg>
