<svg xmlns="http://www.w3.org/2000/svg" width="15" height="15" viewBox="0 0 15 15">
    <path style="fill: white" d="M11.25 7.5a3.75 3.75 0 0 0-2.083-3.358v1.841l2.042 2.042a3.527 3.527 0 0 0 .041-.525zm2.083 0a5.7 5.7 0 0 1-.45 2.2l1.258 1.258A7.33 7.33 0 0 0 15 7.5 7.5 7.5 0 0 0 9.167.192v1.716A5.838 5.838 0 0 1 13.333 7.5zM1.058 0L0 1.058 3.942 5H0v5h3.333L7.5 14.167V8.558l3.542 3.542a5.77 5.77 0 0 1-1.875.983V14.8a7.491 7.491 0 0 0 3.075-1.508l1.7 1.708L15 13.942l-7.5-7.5zM7.5.833L5.758 2.575 7.5 4.317z" data-name="Path 1451"/>
</svg>
