<svg width="22" height="20" viewBox="0 0 22 20" fill="none" xmlns="http://www.w3.org/2000/svg">
<path d="M18.4173 0.276766C18.2837 0.10498 18.0833 0 17.8637 0H5.56196C5.35199 0 5.16112 0.0954367 5.03705 0.248135L1.17187 4.65731C0.952363 4.90545 0.942819 5.27765 1.14324 5.54487L10.9446 18.1998C11.0782 18.3716 11.2786 18.4765 11.4981 18.4765C11.7176 18.4765 11.918 18.3716 12.0517 18.1998L21.853 5.60213C22.0439 5.34445 22.0534 5.00088 21.853 4.7432L18.4173 0.276766ZM19.8775 4.46644L15.4587 4.44735L16.2031 1.39338H17.5297L19.8775 4.46644ZM13.6836 5.85027L11.5363 14.6686L9.61801 5.84073L13.6836 5.85027ZM9.31262 4.43781L8.64456 1.39338H14.7621L14.0176 4.44735L9.31262 4.43781ZM10.162 14.9072L3.12832 5.82164L8.18646 5.83118L10.162 14.9072ZM15.1152 5.85981L19.8775 5.86936L12.9488 14.7736L15.1152 5.85981ZM5.8769 1.39338H7.22255L7.88107 4.43781L3.2333 4.41872L5.8769 1.39338Z" fill="black"/>
</svg>
