<svg width="22" height="22" viewBox="0 0 22 22" fill="none" xmlns="http://www.w3.org/2000/svg">
<path d="M11 0C4.939 0 0 4.939 0 11C0 14.542 1.727 17.897 4.609 19.954C4.939 20.185 5.401 20.108 5.632 19.778C5.863 19.448 5.786 18.986 5.456 18.755C2.959 16.973 1.463 14.069 1.463 11C1.463 5.742 5.742 1.463 11 1.463C16.258 1.463 20.537 5.742 20.537 11C20.537 14.069 19.041 16.973 16.544 18.755C16.214 18.986 16.137 19.448 16.368 19.778C16.511 19.976 16.742 20.086 16.962 20.086C17.105 20.086 17.259 20.042 17.391 19.954C20.273 17.897 22 14.542 22 11C22 4.939 17.061 0 11 0Z" fill="black"/>
<path d="M19.063 11C19.063 6.55601 15.444 2.93701 11 2.93701C6.55601 2.93701 2.93701 6.55601 2.93701 11C2.93701 13.596 4.20201 16.049 6.31401 17.556C6.64401 17.787 7.10601 17.71 7.33701 17.38C7.56801 17.05 7.49101 16.588 7.16101 16.357C5.43401 15.136 4.40001 13.123 4.40001 11C4.40001 7.35901 7.35901 4.40001 11 4.40001C14.641 4.40001 17.6 7.35901 17.6 11C17.6 13.123 16.566 15.136 14.839 16.368C14.509 16.599 14.432 17.061 14.663 17.391C14.806 17.589 15.037 17.699 15.257 17.699C15.4 17.699 15.554 17.655 15.686 17.567C17.798 16.049 19.063 13.596 19.063 11Z" fill="black"/>
<path d="M15.4001 11C15.4001 8.56898 13.4311 6.59998 11.0001 6.59998C8.5691 6.59998 6.6001 8.56898 6.6001 11C6.6001 13.211 8.2281 15.015 10.3401 15.334H10.2631V21.263C10.2631 21.67 10.5931 22 11.0001 22C11.4071 22 11.7371 21.67 11.7371 21.263V15.334H11.6601C13.7721 15.015 15.4001 13.211 15.4001 11ZM11.0001 13.75C9.4821 13.75 8.2501 12.518 8.2501 11C8.2501 9.48198 9.4821 8.24998 11.0001 8.24998C12.5181 8.24998 13.7501 9.48198 13.7501 11C13.7501 12.518 12.5181 13.75 11.0001 13.75Z" fill="black"/>
</svg>
