<svg width="20" height="20" viewBox="0 0 20 20" fill="none" xmlns="http://www.w3.org/2000/svg">
<path d="M19.7827 18.7358L13.9852 12.9383C15.121 11.5753 15.8025 9.81728 15.8025 7.90123C15.8025 3.5358 12.2667 0 7.90123 0C3.5358 0 0 3.5358 0 7.90123C0 12.2667 3.5358 15.8025 7.90123 15.8025C9.81728 15.8025 11.5753 15.121 12.9383 13.9852L18.7358 19.7827C18.884 19.9309 19.0716 20 19.2593 20C19.4469 20 19.6346 19.9309 19.7827 19.7827C20.0691 19.4963 20.0691 19.0222 19.7827 18.7358ZM7.90123 14.321C4.36543 14.321 1.48148 11.437 1.48148 7.90123C1.48148 4.36543 4.36543 1.48148 7.90123 1.48148C11.437 1.48148 14.321 4.36543 14.321 7.90123C14.321 11.437 11.437 14.321 7.90123 14.321Z" fill="#F4DA01"/>
</svg>
