<svg width="22" height="19" viewBox="0 0 22 19" fill="none" xmlns="http://www.w3.org/2000/svg">
<g clip-path="url(#clip0)">
<path d="M7.17152 8.55198C5.89897 8.89707 4.91759 9.92158 4.66956 11.1726C4.59407 11.5824 4.85289 11.9706 5.26269 12.0461C5.30583 12.0569 5.35975 12.0569 5.40289 12.0569C5.75877 12.0569 6.07152 11.8088 6.13622 11.453C6.27642 10.7628 6.82642 10.1912 7.54897 9.99707C8.29309 9.80296 9.05877 10.0294 9.51171 10.5471C9.77054 10.8706 10.245 10.9137 10.5686 10.6549C10.7196 10.5255 10.8166 10.353 10.8382 10.1481C10.8598 9.95394 10.8058 9.74904 10.6764 9.60884L10.6441 9.5657C10.0294 8.86472 9.12348 8.44413 8.15289 8.43335C7.82936 8.43335 7.49505 8.4657 7.17152 8.55198Z" fill="black"/>
<path d="M7.3226 5.94216L8.92947 6.80491C9.04809 6.8804 9.17751 6.91275 9.3177 6.91275C9.38241 6.91275 9.43633 6.90197 9.50103 6.89118C9.69515 6.84805 9.85692 6.71863 9.96476 6.55687C10.0726 6.38432 10.0942 6.17942 10.051 5.99609C9.99711 5.79118 9.8677 5.62942 9.70594 5.52158L8.03437 4.62648C7.92652 4.56177 7.8079 4.52942 7.67849 4.52942C7.67849 4.52942 7.67849 4.52942 7.6677 4.52942C7.47358 4.52942 7.27947 4.60491 7.13927 4.74511C6.99907 4.8853 6.92358 5.06863 6.92358 5.27354C6.92358 5.55393 7.07456 5.81275 7.3226 5.94216Z" fill="black"/>
<path d="M18.2039 10.2667C18.5274 10.2667 18.8186 10.0618 18.9157 9.73825C19.0343 9.33923 18.8186 8.92943 18.3765 8.78923L17.0931 8.44413C17.0176 8.42257 16.9529 8.41178 16.8666 8.42257C16.4568 8.43335 16.1225 8.77845 16.1333 9.18825C16.1441 9.52257 16.3706 9.81374 16.6941 9.90002L17.9774 10.2451C18.0529 10.2559 18.1284 10.2667 18.2039 10.2667Z" fill="black"/>
<path d="M4.46466 5.57554L3.50486 7.13927C3.28917 7.49515 3.39702 7.94809 3.7529 8.17456C3.87153 8.25005 4.01172 8.2824 4.14113 8.2824C4.19506 8.2824 4.25976 8.27162 4.31368 8.26083C4.5078 8.2177 4.66956 8.09907 4.77741 7.92652L5.73721 6.36279C5.96368 6.0177 5.85584 5.55397 5.51074 5.3275C5.37055 5.25201 5.20878 5.20887 5.0578 5.21966C4.80976 5.23044 4.59407 5.37064 4.46466 5.57554Z" fill="black"/>
<path d="M21.8707 6.91282C21.6874 6.29811 21.2992 5.75889 20.7492 5.32752C19.7894 4.59419 18.4953 4.24909 17.1149 3.88242L16.91 3.8285C15.8423 3.54811 14.8394 3.2785 13.8796 3.2138C13.2109 3.17066 12.6178 3.24615 12.1002 3.45105L11.9384 2.83635C11.7011 1.9736 11.356 1.31576 10.86 0.841247C10.3854 0.39909 9.79231 0.129483 9.09133 0.0324237C8.77859 7.07512e-05 8.46584 -0.0107136 8.12074 0.0108551C7.20408 0.0647766 6.24427 0.3236 5.21976 0.603992L4.87466 0.690267C3.50506 1.05693 2.21094 1.40203 1.25113 2.13536C0.701133 2.55595 0.302114 3.10595 0.129565 3.72066C-0.0645531 4.3785 -0.0429845 5.11184 0.19427 5.98537L1.49917 10.8491C1.94133 12.4991 2.96584 13.8903 4.37858 14.7638C5.80211 15.6481 7.45211 15.8961 9.02662 15.4756C9.06976 15.4648 9.1129 15.454 9.15604 15.4324C9.92172 17.0501 11.3021 18.2256 12.9737 18.6677C13.4698 18.7971 13.9766 18.8618 14.4727 18.8618C15.5619 18.8618 16.6403 18.5491 17.6217 17.9452C19.0345 17.0716 20.059 15.6805 20.5011 14.0305L21.806 9.16674C22.0433 8.31478 22.0649 7.57066 21.8707 6.91282ZM8.53055 1.49909C8.65996 1.49909 8.77859 1.50987 8.89721 1.52066C9.29623 1.57458 9.57662 1.69321 9.82466 1.93046C10.1051 2.20007 10.3315 2.64223 10.4933 3.22458L11.7982 8.08831C12.1433 9.37164 12.0031 10.6873 11.3992 11.8089C10.806 12.9197 9.82466 13.7069 8.64917 14.0197C7.47368 14.3324 6.23349 14.1383 5.15506 13.4805C4.07662 12.8118 3.28937 11.7334 2.94427 10.4609L1.63937 5.59713C1.4776 5.01478 1.45604 4.5187 1.56388 4.14125C1.66094 3.81772 1.84427 3.56968 2.15702 3.32164C2.83643 2.81478 4.09819 2.44811 5.44623 2.09223C6.41682 1.8334 7.44133 1.5638 8.2178 1.50987C8.33643 1.49909 8.43349 1.49909 8.53055 1.49909ZM12.1756 13.3511C12.6394 13.9765 13.2972 14.4187 14.0629 14.6236C15.3354 14.9687 16.6943 14.5697 17.5354 13.6099C17.8051 13.2971 17.7727 12.8226 17.46 12.553C17.309 12.4236 17.1149 12.3589 16.9207 12.3697C16.759 12.3805 16.608 12.4452 16.4786 12.553H16.3492V12.6824C15.8854 13.1677 15.1413 13.3618 14.4511 13.1785C13.7502 12.9844 13.2002 12.4452 13.0492 11.7765C13.3727 10.9138 13.5129 9.96478 13.459 9.02654L14.1276 9.20987C14.3217 9.27458 14.5158 9.25301 14.6992 9.16674C14.8825 9.08046 15.0119 8.9187 15.0658 8.72458C15.1953 8.33635 14.9796 7.90497 14.5805 7.78635L13.2325 7.41968C13.2109 7.40889 13.1894 7.40889 13.157 7.40889L12.4884 4.9285C12.7149 4.80987 12.9521 4.73438 13.2541 4.7236C13.4051 4.71282 13.5776 4.71282 13.7717 4.7236C14.5158 4.77752 15.4325 5.00399 16.5541 5.30595C17.9021 5.66184 19.1639 6.0285 19.8325 6.54615C20.156 6.79419 20.3286 7.03144 20.4256 7.36576C20.5335 7.74321 20.5119 8.23929 20.3502 8.82164L19.0453 13.6854C18.7002 14.9687 17.9237 16.0363 16.8345 16.705C15.756 17.3736 14.5158 17.5677 13.3404 17.2442C12.1109 16.9099 11.0864 16.0471 10.5041 14.8501C11.1619 14.4511 11.7227 13.9442 12.1756 13.3511Z" fill="black"/>
</g>
<defs>
<clipPath id="clip0">
<rect width="22" height="18.8725" fill="white"/>
</clipPath>
</defs>
</svg>
