<svg xmlns="http://www.w3.org/2000/svg" width="25.018" height="20.35" viewBox="0 0 25.018 20.35">
    <path d="M25.017 2.407a10.049 10.049 0 0 1-2.948.806A5.133 5.133 0 0 0 24.33.375a10.245 10.245 0 0 1-3.259 1.245 5.136 5.136 0 0 0-8.879 3.515 4.947 4.947 0 0 0 .137 1.172A14.582 14.582 0 0 1 1.747.943 5.137 5.137 0 0 0 3.34 7.8a5.132 5.132 0 0 1-2.325-.641v.064a5.136 5.136 0 0 0 4.119 5.035 5.093 5.093 0 0 1-1.355.183 5.713 5.713 0 0 1-.97-.092 5.148 5.148 0 0 0 4.8 3.57 10.332 10.332 0 0 1-6.38 2.2 10.9 10.9 0 0 1-1.227-.073 14.6 14.6 0 0 0 22.482-12.3c0-.22-.009-.449-.018-.668a10.4 10.4 0 0 0 2.551-2.671z"/>
</svg>
