<svg xmlns="http://www.w3.org/2000/svg" width="21.914" height="20.35" viewBox="0 0 21.914 20.35">
    <defs>
        <style>
            .yt{fill-rule:evenodd}
        </style>
    </defs>
    <path d="M8.7 5l1.565 4.7v3.131H11.3V9.7L12.87 5h-1.043l-1.044 3.131L9.74 5zm5.74 2.087a1.568 1.568 0 0 0-1.17.367c-.326.275-.416.487-.4 1.2v2.609a1.443 1.443 0 0 0 .4 1.166 1.491 1.491 0 0 0 1.166.4 1.463 1.463 0 0 0 1.174-.4 1.386 1.386 0 0 0 .39-1.167V8.653a1.544 1.544 0 0 0-.4-1.188 1.534 1.534 0 0 0-1.164-.378zm2.609 0v4.7a1.125 1.125 0 0 0 1.044 1.044 1.307 1.307 0 0 0 1.044-.522v.522h1.044V7.087h-1.049v4.174c-.006.357-.426.522-.522.522a.481.481 0 0 1-.522-.522V7.087zm-2.613 1.044c.157 0 .522 0 .522.522v2.609c0 .506-.353.522-.522.522s-.522-.006-.522-.522V8.653c0-.426.226-.522.522-.522zm-7.3 5.74A2.955 2.955 0 0 0 4 17v4.957a3.169 3.169 0 0 0 3.131 3.393h15.653a2.955 2.955 0 0 0 3.131-3.131V17a2.955 2.955 0 0 0-3.131-3.131zm1.044 2.087h3.12V17h-1.039v6.262H9.218V17H8.174zm7.3 0h1.044v2.087a1.209 1.209 0 0 1 .471-.42 1.113 1.113 0 0 1 .508-.134.954.954 0 0 1 .785.35 1.52 1.52 0 0 1 .324.987v3.131a1.21 1.21 0 0 1-.3.834 1.06 1.06 0 0 1-.742.471 1.277 1.277 0 0 1-1.044-.522v.522h-1.047zm-4.18 1.565h1.044V21.7a.562.562 0 0 0 .522.522c.424 0 .428-.4.522-.522v-4.177h1.044v5.74h-1.04v-.522a1.316 1.316 0 0 1-.511.408 1.21 1.21 0 0 1-.64.114 1.025 1.025 0 0 1-.675-.4.94.94 0 0 1-.261-.644zm9.5 0a1.408 1.408 0 0 1 1.107.383 1.451 1.451 0 0 1 .355 1.123v1.624h-2.087v.807a1.071 1.071 0 0 0 .114.587.435.435 0 0 0 .408.171.5.5 0 0 0 .418-.141 1.241 1.241 0 0 0 .1-.642v-.261h1.044v.31a1.7 1.7 0 0 1-.326 1.27 1.576 1.576 0 0 1-1.221.426 1.493 1.493 0 0 1-1.159-.449 1.771 1.771 0 0 1-.422-1.247V19.03a1.533 1.533 0 0 1 .469-1.135 1.716 1.716 0 0 1 1.2-.372zm-3.756.783a.542.542 0 0 0-.522.522v3.131c0 .151.234.261.522.261a.513.513 0 0 0 .522-.51v-2.621c0-.522-.234-.783-.522-.783zm3.652.261a.531.531 0 0 0-.522.522v.522h1.044v-.522a.5.5 0 0 0-.518-.522z" class="yt" data-name="Path 1245" transform="translate(-4 -5)"/>
</svg>
