<svg version="1" xmlns="http://www.w3.org/2000/svg" width="666.667" height="666.667" viewBox="0 0 500.000000 500.000000"><path d="M212.3 117.2c-.1 1.5-1.1 10.9-1.8 15.8-.3 1.9-.7 5.5-1 8-.3 2.5-.7 6.1-1 8-.2 1.9-.7 5.7-1 8.5-.3 2.7-.8 6.6-1 8.5-.3 1.9-.7 5.8-1 8.6-.3 2.8-.7 6-1 7.2-.2 1.1-.7 5.2-1 8.9-.4 3.7-.9 7-1.1 7.2-.2.2-10.9.4-23.9.4H155v36.4l20.3.1c11.1 0 20.8.1 21.6.1 1.3.1 1.3 1.6-.4 13.4-.2 1.7-.7 5.4-1 8.2-.3 2.7-.9 6-1.2 7.2l-.5 2.3H141l.2 18.2.3 18.2h48.2l-.3 3.1c-.2 1.6-.8 7-1.4 12-.6 4.9-1.3 10.8-1.6 13-.2 2.2-.6 5.6-.9 7.5-.2 1.9-.7 6-1 9-.4 3-.8 6.6-1 8-.2 1.4-.7 5-1 8-.4 3-1 8.4-1.5 12-.6 3.6-1 7.1-1 7.7 0 1 4.4 1.3 18.5 1.3H217l.1-2.8c0-1.5.2-3.4.3-4.2.2-.8.6-4 1-7 .3-3 1.1-8.9 1.6-13s1.2-9.5 1.4-12c.3-2.5 1.2-10 2-16.7.8-6.7 1.8-15 2.2-18.5.3-3.4.8-6.5 1.1-6.8.3-.3 9.4-.5 20.4-.5H267v3c0 1.6-.4 5.9-.9 9.5-.5 3.6-1.3 9.4-1.6 13-.4 3.6-.8 7.2-1 8-.2.8-.6 4.4-.9 8-.4 3.6-.9 7.6-1.1 9-.2 1.4-.7 5-1.1 8-.3 3-.8 6.6-.9 8-.2 1.4-.7 5.3-1 8.7l-.7 6.3h18.1c13.8 0 18.1-.3 18.2-1.3 0-.6.2-2.1.4-3.2s.7-4.7 1-8c.3-3.3.8-7.4 1.1-9 .2-1.7 1.5-12.5 2.9-24 3.6-29.9 3.6-29.8 4-32.4.2-1.3.7-2.6 1-3 .4-.3 9.5-.6 20.3-.6h19.7l.1-18.3V266h-36.5l.4-2.3c.2-1.2.6-4.5 1-7.2 1.7-15.3 2.4-20.8 3-21.3.2-.2 10.7-.5 23.2-.6l22.8-.1v-17.8c.1-17.1 0-17.8-2-18.2-1.1-.2-9.9-.4-19.5-.3-9.6 0-18.2 0-19.1-.1-1.4-.1-1.4-1.1-.3-8.9.6-4.8 1.5-11.9 1.8-15.7.4-3.9.9-8.1 1.1-9.5.4-2.4 1.4-10.9 2-16 .7-7.1 1.7-15.2 2.5-21 .5-3.6 1-7.5 1-8.8V116h-18c-9.9 0-18 .3-18.1.7 0 .5-.2 2-.4 3.5-.2 1.4-.8 7.1-1.5 12.5-.6 5.4-1.5 12.9-2 16.8-.9 6.8-1.4 10.6-2.5 21-.3 2.7-.8 6.1-1 7.5-.2 1.4-.7 5.4-1 9-.9 8.6-1.3 10.2-2.4 10.9-1.1.7-38.9.6-39.6-.1-.3-.2-.1-3.8.4-7.9.6-4.1 1.3-9.9 1.6-12.9.3-3 .8-7.1 1-9 .3-1.9.7-5.5 1-8 .3-2.5.7-6.1 1-8 .2-1.9 1.1-9.4 2-16.5.8-7.2 1.7-14.5 1.9-16.3l.5-3.2h-18.3c-13.9 0-18.3.3-18.3 1.2zm59.9 117.7c3.2.1 3.6.4 3.3 2.3-.2 1.3-.6 4.3-.9 6.8-1.1 9.3-1.9 15.5-2.2 17-.1.8-.3 2.3-.3 3.2-.1 1.7-1.8 1.8-20.6 1.8H231l.5-5.5c.3-3.1.7-6.8.9-8.3.2-1.5.7-5.9 1.1-9.9.7-7.2.7-7.2 3.8-7.5 2.7-.3 22.6-.2 34.9.1z"/></svg>